<?xml version="1.0" encoding="UTF-8"?>
<svg xmlns="http://www.w3.org/2000/svg" viewBox="0 0 248 160" shape-rendering="crispEdges">
  <defs>
    <linearGradient id="g" x1="15" y1="0" x2="233" y2="0" gradientUnits="userSpaceOnUse" color-interpolation="linearRGB">
      <stop offset="0%" stop-color="#14b8a6"/>
      <stop offset="6%" stop-color="#009e9e"/>
      <stop offset="20%" stop-color="#008592"/>
      <stop offset="39%" stop-color="#046c82"/>
      <stop offset="61%" stop-color="#13546e"/>
      <stop offset="80%" stop-color="#173e59"/>
      <stop offset="94%" stop-color="#152941"/>
      <stop offset="100%" stop-color="#0f172a"/>
    </linearGradient>
    <linearGradient id="gs" x1="15" y1="0" x2="233" y2="0" gradientUnits="userSpaceOnUse" color-interpolation="linearRGB">
      <stop offset="0%" stop-color="#063b35"/>
      <stop offset="6%" stop-color="#033333"/>
      <stop offset="20%" stop-color="#042b2f"/>
      <stop offset="39%" stop-color="#06232a"/>
      <stop offset="61%" stop-color="#071b24"/>
      <stop offset="80%" stop-color="#08141d"/>
      <stop offset="94%" stop-color="#070d15"/>
      <stop offset="100%" stop-color="#05070d"/>
    </linearGradient>
  </defs>
  <g fill="url(#gs)">
    <rect x="18" y="18" width="3" height="5"/><rect x="22" y="25" width="3" height="5"/>
    <rect x="27" y="18" width="3" height="5"/><rect x="31" y="25" width="3" height="5"/>
    <rect x="36" y="18" width="3" height="5"/><rect x="40" y="25" width="3" height="5"/>
    <rect x="45" y="18" width="3" height="5"/><rect x="49" y="25" width="3" height="5"/>
    <rect x="54" y="18" width="3" height="5"/><rect x="58" y="25" width="3" height="5"/>
    <rect x="63" y="18" width="3" height="5"/><rect x="67" y="25" width="3" height="5"/>
    <rect x="72" y="18" width="3" height="5"/><rect x="76" y="25" width="3" height="5"/>
    <rect x="81" y="18" width="3" height="5"/><rect x="85" y="25" width="3" height="5"/>
    <rect x="90" y="18" width="3" height="5"/><rect x="94" y="25" width="3" height="5"/>
    <rect x="99" y="18" width="3" height="5"/><rect x="103" y="25" width="3" height="5"/>
    <rect x="108" y="18" width="3" height="5"/><rect x="112" y="25" width="3" height="5"/>
    <rect x="117" y="18" width="3" height="5"/><rect x="121" y="25" width="3" height="5"/>
    <rect x="126" y="18" width="3" height="5"/><rect x="130" y="25" width="3" height="5"/>
    <rect x="135" y="18" width="3" height="5"/><rect x="139" y="25" width="3" height="5"/>
    <rect x="144" y="18" width="3" height="5"/><rect x="148" y="25" width="3" height="5"/>
    <rect x="153" y="18" width="3" height="5"/><rect x="157" y="25" width="3" height="5"/>
    <rect x="162" y="18" width="3" height="5"/><rect x="166" y="25" width="3" height="5"/>
    <rect x="171" y="18" width="3" height="5"/><rect x="175" y="25" width="3" height="5"/>
    <rect x="180" y="18" width="3" height="5"/><rect x="184" y="25" width="3" height="5"/>
    <rect x="189" y="18" width="3" height="5"/><rect x="193" y="25" width="3" height="5"/>
    <rect x="198" y="18" width="3" height="5"/><rect x="202" y="25" width="3" height="5"/>
    <rect x="207" y="18" width="3" height="5"/><rect x="211" y="25" width="3" height="5"/>
    <rect x="216" y="18" width="3" height="5"/><rect x="220" y="25" width="3" height="5"/>
    <rect x="225" y="18" width="3" height="5"/><rect x="229" y="25" width="3" height="5"/>
    <rect x="18" y="34" width="3" height="5"/><rect x="22" y="41" width="3" height="5"/>
    <rect x="26" y="33" width="9" height="16"/>
    <rect x="35" y="33" width="9" height="16"/>
    <rect x="44" y="33" width="9" height="16"/>
    <rect x="54" y="34" width="3" height="5"/><rect x="58" y="41" width="3" height="5"/>
    <rect x="62" y="33" width="9" height="16"/>
    <rect x="71" y="33" width="9" height="16"/>
    <rect x="80" y="33" width="9" height="16"/>
    <rect x="90" y="34" width="3" height="5"/><rect x="94" y="41" width="3" height="5"/>
    <rect x="99" y="34" width="3" height="5"/><rect x="103" y="41" width="3" height="5"/>
    <rect x="108" y="34" width="3" height="5"/><rect x="112" y="41" width="3" height="5"/>
    <rect x="116" y="33" width="9" height="16"/>
    <rect x="125" y="33" width="9" height="16"/>
    <rect x="135" y="34" width="3" height="5"/><rect x="139" y="41" width="3" height="5"/>
    <rect x="144" y="34" width="3" height="5"/><rect x="148" y="41" width="3" height="5"/>
    <rect x="152" y="33" width="9" height="16"/>
    <rect x="161" y="33" width="9" height="16"/>
    <rect x="170" y="33" width="9" height="16"/>
    <rect x="179" y="33" width="9" height="16"/>
    <rect x="189" y="34" width="3" height="5"/><rect x="193" y="41" width="3" height="5"/>
    <rect x="197" y="33" width="9" height="16"/>
    <rect x="206" y="33" width="9" height="16"/>
    <rect x="215" y="33" width="9" height="16"/>
    <rect x="224" y="33" width="9" height="16"/>
    <rect x="18" y="50" width="3" height="5"/><rect x="22" y="57" width="3" height="5"/>
    <rect x="35" y="49" width="9" height="16"/>
    <rect x="54" y="50" width="3" height="5"/><rect x="58" y="57" width="3" height="5"/>
    <rect x="62" y="49" width="9" height="16"/>
    <rect x="89" y="49" width="9" height="16"/>
    <rect x="99" y="50" width="3" height="5"/><rect x="103" y="57" width="3" height="5"/>
    <rect x="107" y="49" width="9" height="16"/>
    <rect x="134" y="49" width="9" height="16"/>
    <rect x="144" y="50" width="3" height="5"/><rect x="148" y="57" width="3" height="5"/>
    <rect x="152" y="49" width="9" height="16"/>
    <rect x="189" y="50" width="3" height="5"/><rect x="193" y="57" width="3" height="5"/>
    <rect x="197" y="49" width="9" height="16"/>
    <rect x="18" y="66" width="3" height="5"/><rect x="22" y="73" width="3" height="5"/>
    <rect x="27" y="66" width="3" height="5"/><rect x="31" y="73" width="3" height="5"/>
    <rect x="35" y="65" width="9" height="16"/>
    <rect x="45" y="66" width="3" height="5"/><rect x="49" y="73" width="3" height="5"/>
    <rect x="54" y="66" width="3" height="5"/><rect x="58" y="73" width="3" height="5"/>
    <rect x="62" y="65" width="9" height="16"/>
    <rect x="71" y="65" width="9" height="16"/>
    <rect x="80" y="65" width="9" height="16"/>
    <rect x="99" y="66" width="3" height="5"/><rect x="103" y="73" width="3" height="5"/>
    <rect x="107" y="65" width="9" height="16"/>
    <rect x="116" y="65" width="9" height="16"/>
    <rect x="125" y="65" width="9" height="16"/>
    <rect x="134" y="65" width="9" height="16"/>
    <rect x="144" y="66" width="3" height="5"/><rect x="148" y="73" width="3" height="5"/>
    <rect x="152" y="65" width="9" height="16"/>
    <rect x="162" y="66" width="3" height="5"/><rect x="166" y="73" width="3" height="5"/>
    <rect x="171" y="66" width="3" height="5"/><rect x="175" y="73" width="3" height="5"/>
    <rect x="180" y="66" width="3" height="5"/><rect x="184" y="73" width="3" height="5"/>
    <rect x="189" y="66" width="3" height="5"/><rect x="193" y="73" width="3" height="5"/>
    <rect x="197" y="65" width="9" height="16"/>
    <rect x="206" y="65" width="9" height="16"/>
    <rect x="215" y="65" width="9" height="16"/>
    <rect x="225" y="66" width="3" height="5"/><rect x="229" y="73" width="3" height="5"/>
    <rect x="18" y="82" width="3" height="5"/><rect x="22" y="89" width="3" height="5"/>
    <rect x="27" y="82" width="3" height="5"/><rect x="31" y="89" width="3" height="5"/>
    <rect x="35" y="81" width="9" height="16"/>
    <rect x="45" y="82" width="3" height="5"/><rect x="49" y="89" width="3" height="5"/>
    <rect x="54" y="82" width="3" height="5"/><rect x="58" y="89" width="3" height="5"/>
    <rect x="62" y="81" width="9" height="16"/>
    <rect x="89" y="81" width="9" height="16"/>
    <rect x="99" y="82" width="3" height="5"/><rect x="103" y="89" width="3" height="5"/>
    <rect x="107" y="81" width="9" height="16"/>
    <rect x="134" y="81" width="9" height="16"/>
    <rect x="144" y="82" width="3" height="5"/><rect x="148" y="89" width="3" height="5"/>
    <rect x="152" y="81" width="9" height="16"/>
    <rect x="162" y="82" width="3" height="5"/><rect x="166" y="89" width="3" height="5"/>
    <rect x="171" y="82" width="3" height="5"/><rect x="175" y="89" width="3" height="5"/>
    <rect x="180" y="82" width="3" height="5"/><rect x="184" y="89" width="3" height="5"/>
    <rect x="189" y="82" width="3" height="5"/><rect x="193" y="89" width="3" height="5"/>
    <rect x="197" y="81" width="9" height="16"/>
    <rect x="225" y="82" width="3" height="5"/><rect x="229" y="89" width="3" height="5"/>
    <rect x="18" y="98" width="3" height="5"/><rect x="22" y="105" width="3" height="5"/>
    <rect x="27" y="98" width="3" height="5"/><rect x="31" y="105" width="3" height="5"/>
    <rect x="35" y="97" width="9" height="16"/>
    <rect x="45" y="98" width="3" height="5"/><rect x="49" y="105" width="3" height="5"/>
    <rect x="54" y="98" width="3" height="5"/><rect x="58" y="105" width="3" height="5"/>
    <rect x="62" y="97" width="9" height="16"/>
    <rect x="72" y="98" width="3" height="5"/><rect x="76" y="105" width="3" height="5"/>
    <rect x="81" y="98" width="3" height="5"/><rect x="85" y="105" width="3" height="5"/>
    <rect x="89" y="97" width="9" height="16"/>
    <rect x="99" y="98" width="3" height="5"/><rect x="103" y="105" width="3" height="5"/>
    <rect x="107" y="97" width="9" height="16"/>
    <rect x="117" y="98" width="3" height="5"/><rect x="121" y="105" width="3" height="5"/>
    <rect x="126" y="98" width="3" height="5"/><rect x="130" y="105" width="3" height="5"/>
    <rect x="134" y="97" width="9" height="16"/>
    <rect x="144" y="98" width="3" height="5"/><rect x="148" y="105" width="3" height="5"/>
    <rect x="152" y="97" width="9" height="16"/>
    <rect x="161" y="97" width="9" height="16"/>
    <rect x="170" y="97" width="9" height="16"/>
    <rect x="179" y="97" width="9" height="16"/>
    <rect x="189" y="98" width="3" height="5"/><rect x="193" y="105" width="3" height="5"/>
    <rect x="197" y="97" width="9" height="16"/>
    <rect x="206" y="97" width="9" height="16"/>
    <rect x="215" y="97" width="9" height="16"/>
    <rect x="224" y="97" width="9" height="16"/>
    <rect x="18" y="114" width="3" height="5"/><rect x="22" y="121" width="3" height="5"/>
    <rect x="27" y="114" width="3" height="5"/><rect x="31" y="121" width="3" height="5"/>
    <rect x="45" y="114" width="3" height="5"/><rect x="49" y="121" width="3" height="5"/>
    <rect x="54" y="114" width="3" height="5"/><rect x="58" y="121" width="3" height="5"/>
    <rect x="72" y="114" width="3" height="5"/><rect x="76" y="121" width="3" height="5"/>
    <rect x="81" y="114" width="3" height="5"/><rect x="85" y="121" width="3" height="5"/>
    <rect x="99" y="114" width="3" height="5"/><rect x="103" y="121" width="3" height="5"/>
    <rect x="117" y="114" width="3" height="5"/><rect x="121" y="121" width="3" height="5"/>
    <rect x="126" y="114" width="3" height="5"/><rect x="130" y="121" width="3" height="5"/>
    <rect x="144" y="114" width="3" height="5"/><rect x="148" y="121" width="3" height="5"/>
    <rect x="189" y="114" width="3" height="5"/><rect x="193" y="121" width="3" height="5"/>
    <rect x="18" y="130" width="3" height="5"/><rect x="22" y="137" width="3" height="5"/>
    <rect x="27" y="130" width="3" height="5"/><rect x="31" y="137" width="3" height="5"/>
    <rect x="36" y="130" width="3" height="5"/><rect x="40" y="137" width="3" height="5"/>
    <rect x="45" y="130" width="3" height="5"/><rect x="49" y="137" width="3" height="5"/>
    <rect x="54" y="130" width="3" height="5"/><rect x="58" y="137" width="3" height="5"/>
    <rect x="63" y="130" width="3" height="5"/><rect x="67" y="137" width="3" height="5"/>
    <rect x="72" y="130" width="3" height="5"/><rect x="76" y="137" width="3" height="5"/>
    <rect x="81" y="130" width="3" height="5"/><rect x="85" y="137" width="3" height="5"/>
    <rect x="90" y="130" width="3" height="5"/><rect x="94" y="137" width="3" height="5"/>
    <rect x="99" y="130" width="3" height="5"/><rect x="103" y="137" width="3" height="5"/>
    <rect x="108" y="130" width="3" height="5"/><rect x="112" y="137" width="3" height="5"/>
    <rect x="117" y="130" width="3" height="5"/><rect x="121" y="137" width="3" height="5"/>
    <rect x="126" y="130" width="3" height="5"/><rect x="130" y="137" width="3" height="5"/>
    <rect x="135" y="130" width="3" height="5"/><rect x="139" y="137" width="3" height="5"/>
    <rect x="144" y="130" width="3" height="5"/><rect x="148" y="137" width="3" height="5"/>
    <rect x="153" y="130" width="3" height="5"/><rect x="157" y="137" width="3" height="5"/>
    <rect x="162" y="130" width="3" height="5"/><rect x="166" y="137" width="3" height="5"/>
    <rect x="171" y="130" width="3" height="5"/><rect x="175" y="137" width="3" height="5"/>
    <rect x="180" y="130" width="3" height="5"/><rect x="184" y="137" width="3" height="5"/>
    <rect x="189" y="130" width="3" height="5"/><rect x="193" y="137" width="3" height="5"/>
    <rect x="198" y="130" width="3" height="5"/><rect x="202" y="137" width="3" height="5"/>
    <rect x="207" y="130" width="3" height="5"/><rect x="211" y="137" width="3" height="5"/>
    <rect x="216" y="130" width="3" height="5"/><rect x="220" y="137" width="3" height="5"/>
    <rect x="225" y="130" width="3" height="5"/><rect x="229" y="137" width="3" height="5"/>
  </g>
  <g fill="url(#g)">
    <rect x="16" y="16" width="3" height="5"/><rect x="20" y="23" width="3" height="5"/>
    <rect x="25" y="16" width="3" height="5"/><rect x="29" y="23" width="3" height="5"/>
    <rect x="34" y="16" width="3" height="5"/><rect x="38" y="23" width="3" height="5"/>
    <rect x="43" y="16" width="3" height="5"/><rect x="47" y="23" width="3" height="5"/>
    <rect x="52" y="16" width="3" height="5"/><rect x="56" y="23" width="3" height="5"/>
    <rect x="61" y="16" width="3" height="5"/><rect x="65" y="23" width="3" height="5"/>
    <rect x="70" y="16" width="3" height="5"/><rect x="74" y="23" width="3" height="5"/>
    <rect x="79" y="16" width="3" height="5"/><rect x="83" y="23" width="3" height="5"/>
    <rect x="88" y="16" width="3" height="5"/><rect x="92" y="23" width="3" height="5"/>
    <rect x="97" y="16" width="3" height="5"/><rect x="101" y="23" width="3" height="5"/>
    <rect x="106" y="16" width="3" height="5"/><rect x="110" y="23" width="3" height="5"/>
    <rect x="115" y="16" width="3" height="5"/><rect x="119" y="23" width="3" height="5"/>
    <rect x="124" y="16" width="3" height="5"/><rect x="128" y="23" width="3" height="5"/>
    <rect x="133" y="16" width="3" height="5"/><rect x="137" y="23" width="3" height="5"/>
    <rect x="142" y="16" width="3" height="5"/><rect x="146" y="23" width="3" height="5"/>
    <rect x="151" y="16" width="3" height="5"/><rect x="155" y="23" width="3" height="5"/>
    <rect x="160" y="16" width="3" height="5"/><rect x="164" y="23" width="3" height="5"/>
    <rect x="169" y="16" width="3" height="5"/><rect x="173" y="23" width="3" height="5"/>
    <rect x="178" y="16" width="3" height="5"/><rect x="182" y="23" width="3" height="5"/>
    <rect x="187" y="16" width="3" height="5"/><rect x="191" y="23" width="3" height="5"/>
    <rect x="196" y="16" width="3" height="5"/><rect x="200" y="23" width="3" height="5"/>
    <rect x="205" y="16" width="3" height="5"/><rect x="209" y="23" width="3" height="5"/>
    <rect x="214" y="16" width="3" height="5"/><rect x="218" y="23" width="3" height="5"/>
    <rect x="223" y="16" width="3" height="5"/><rect x="227" y="23" width="3" height="5"/>
    <rect x="16" y="32" width="3" height="5"/><rect x="20" y="39" width="3" height="5"/>
    <rect x="24" y="31" width="9" height="16"/>
    <rect x="33" y="31" width="9" height="16"/>
    <rect x="42" y="31" width="9" height="16"/>
    <rect x="52" y="32" width="3" height="5"/><rect x="56" y="39" width="3" height="5"/>
    <rect x="60" y="31" width="9" height="16"/>
    <rect x="69" y="31" width="9" height="16"/>
    <rect x="78" y="31" width="9" height="16"/>
    <rect x="88" y="32" width="3" height="5"/><rect x="92" y="39" width="3" height="5"/>
    <rect x="97" y="32" width="3" height="5"/><rect x="101" y="39" width="3" height="5"/>
    <rect x="106" y="32" width="3" height="5"/><rect x="110" y="39" width="3" height="5"/>
    <rect x="114" y="31" width="9" height="16"/>
    <rect x="123" y="31" width="9" height="16"/>
    <rect x="133" y="32" width="3" height="5"/><rect x="137" y="39" width="3" height="5"/>
    <rect x="142" y="32" width="3" height="5"/><rect x="146" y="39" width="3" height="5"/>
    <rect x="150" y="31" width="9" height="16"/>
    <rect x="159" y="31" width="9" height="16"/>
    <rect x="168" y="31" width="9" height="16"/>
    <rect x="177" y="31" width="9" height="16"/>
    <rect x="187" y="32" width="3" height="5"/><rect x="191" y="39" width="3" height="5"/>
    <rect x="195" y="31" width="9" height="16"/>
    <rect x="204" y="31" width="9" height="16"/>
    <rect x="213" y="31" width="9" height="16"/>
    <rect x="222" y="31" width="9" height="16"/>
    <rect x="16" y="48" width="3" height="5"/><rect x="20" y="55" width="3" height="5"/>
    <rect x="33" y="47" width="9" height="16"/>
    <rect x="52" y="48" width="3" height="5"/><rect x="56" y="55" width="3" height="5"/>
    <rect x="60" y="47" width="9" height="16"/>
    <rect x="87" y="47" width="9" height="16"/>
    <rect x="97" y="48" width="3" height="5"/><rect x="101" y="55" width="3" height="5"/>
    <rect x="105" y="47" width="9" height="16"/>
    <rect x="132" y="47" width="9" height="16"/>
    <rect x="142" y="48" width="3" height="5"/><rect x="146" y="55" width="3" height="5"/>
    <rect x="150" y="47" width="9" height="16"/>
    <rect x="187" y="48" width="3" height="5"/><rect x="191" y="55" width="3" height="5"/>
    <rect x="195" y="47" width="9" height="16"/>
    <rect x="16" y="64" width="3" height="5"/><rect x="20" y="71" width="3" height="5"/>
    <rect x="25" y="64" width="3" height="5"/><rect x="29" y="71" width="3" height="5"/>
    <rect x="33" y="63" width="9" height="16"/>
    <rect x="43" y="64" width="3" height="5"/><rect x="47" y="71" width="3" height="5"/>
    <rect x="52" y="64" width="3" height="5"/><rect x="56" y="71" width="3" height="5"/>
    <rect x="60" y="63" width="9" height="16"/>
    <rect x="69" y="63" width="9" height="16"/>
    <rect x="78" y="63" width="9" height="16"/>
    <rect x="97" y="64" width="3" height="5"/><rect x="101" y="71" width="3" height="5"/>
    <rect x="105" y="63" width="9" height="16"/>
    <rect x="114" y="63" width="9" height="16"/>
    <rect x="123" y="63" width="9" height="16"/>
    <rect x="132" y="63" width="9" height="16"/>
    <rect x="142" y="64" width="3" height="5"/><rect x="146" y="71" width="3" height="5"/>
    <rect x="150" y="63" width="9" height="16"/>
    <rect x="160" y="64" width="3" height="5"/><rect x="164" y="71" width="3" height="5"/>
    <rect x="169" y="64" width="3" height="5"/><rect x="173" y="71" width="3" height="5"/>
    <rect x="178" y="64" width="3" height="5"/><rect x="182" y="71" width="3" height="5"/>
    <rect x="187" y="64" width="3" height="5"/><rect x="191" y="71" width="3" height="5"/>
    <rect x="195" y="63" width="9" height="16"/>
    <rect x="204" y="63" width="9" height="16"/>
    <rect x="213" y="63" width="9" height="16"/>
    <rect x="223" y="64" width="3" height="5"/><rect x="227" y="71" width="3" height="5"/>
    <rect x="16" y="80" width="3" height="5"/><rect x="20" y="87" width="3" height="5"/>
    <rect x="25" y="80" width="3" height="5"/><rect x="29" y="87" width="3" height="5"/>
    <rect x="33" y="79" width="9" height="16"/>
    <rect x="43" y="80" width="3" height="5"/><rect x="47" y="87" width="3" height="5"/>
    <rect x="52" y="80" width="3" height="5"/><rect x="56" y="87" width="3" height="5"/>
    <rect x="60" y="79" width="9" height="16"/>
    <rect x="87" y="79" width="9" height="16"/>
    <rect x="97" y="80" width="3" height="5"/><rect x="101" y="87" width="3" height="5"/>
    <rect x="105" y="79" width="9" height="16"/>
    <rect x="132" y="79" width="9" height="16"/>
    <rect x="142" y="80" width="3" height="5"/><rect x="146" y="87" width="3" height="5"/>
    <rect x="150" y="79" width="9" height="16"/>
    <rect x="160" y="80" width="3" height="5"/><rect x="164" y="87" width="3" height="5"/>
    <rect x="169" y="80" width="3" height="5"/><rect x="173" y="87" width="3" height="5"/>
    <rect x="178" y="80" width="3" height="5"/><rect x="182" y="87" width="3" height="5"/>
    <rect x="187" y="80" width="3" height="5"/><rect x="191" y="87" width="3" height="5"/>
    <rect x="195" y="79" width="9" height="16"/>
    <rect x="223" y="80" width="3" height="5"/><rect x="227" y="87" width="3" height="5"/>
    <rect x="16" y="96" width="3" height="5"/><rect x="20" y="103" width="3" height="5"/>
    <rect x="25" y="96" width="3" height="5"/><rect x="29" y="103" width="3" height="5"/>
    <rect x="33" y="95" width="9" height="16"/>
    <rect x="43" y="96" width="3" height="5"/><rect x="47" y="103" width="3" height="5"/>
    <rect x="52" y="96" width="3" height="5"/><rect x="56" y="103" width="3" height="5"/>
    <rect x="60" y="95" width="9" height="16"/>
    <rect x="70" y="96" width="3" height="5"/><rect x="74" y="103" width="3" height="5"/>
    <rect x="79" y="96" width="3" height="5"/><rect x="83" y="103" width="3" height="5"/>
    <rect x="87" y="95" width="9" height="16"/>
    <rect x="97" y="96" width="3" height="5"/><rect x="101" y="103" width="3" height="5"/>
    <rect x="105" y="95" width="9" height="16"/>
    <rect x="115" y="96" width="3" height="5"/><rect x="119" y="103" width="3" height="5"/>
    <rect x="124" y="96" width="3" height="5"/><rect x="128" y="103" width="3" height="5"/>
    <rect x="132" y="95" width="9" height="16"/>
    <rect x="142" y="96" width="3" height="5"/><rect x="146" y="103" width="3" height="5"/>
    <rect x="150" y="95" width="9" height="16"/>
    <rect x="159" y="95" width="9" height="16"/>
    <rect x="168" y="95" width="9" height="16"/>
    <rect x="177" y="95" width="9" height="16"/>
    <rect x="187" y="96" width="3" height="5"/><rect x="191" y="103" width="3" height="5"/>
    <rect x="195" y="95" width="9" height="16"/>
    <rect x="204" y="95" width="9" height="16"/>
    <rect x="213" y="95" width="9" height="16"/>
    <rect x="222" y="95" width="9" height="16"/>
    <rect x="16" y="112" width="3" height="5"/><rect x="20" y="119" width="3" height="5"/>
    <rect x="25" y="112" width="3" height="5"/><rect x="29" y="119" width="3" height="5"/>
    <rect x="43" y="112" width="3" height="5"/><rect x="47" y="119" width="3" height="5"/>
    <rect x="52" y="112" width="3" height="5"/><rect x="56" y="119" width="3" height="5"/>
    <rect x="70" y="112" width="3" height="5"/><rect x="74" y="119" width="3" height="5"/>
    <rect x="79" y="112" width="3" height="5"/><rect x="83" y="119" width="3" height="5"/>
    <rect x="97" y="112" width="3" height="5"/><rect x="101" y="119" width="3" height="5"/>
    <rect x="115" y="112" width="3" height="5"/><rect x="119" y="119" width="3" height="5"/>
    <rect x="124" y="112" width="3" height="5"/><rect x="128" y="119" width="3" height="5"/>
    <rect x="142" y="112" width="3" height="5"/><rect x="146" y="119" width="3" height="5"/>
    <rect x="187" y="112" width="3" height="5"/><rect x="191" y="119" width="3" height="5"/>
    <rect x="16" y="128" width="3" height="5"/><rect x="20" y="135" width="3" height="5"/>
    <rect x="25" y="128" width="3" height="5"/><rect x="29" y="135" width="3" height="5"/>
    <rect x="34" y="128" width="3" height="5"/><rect x="38" y="135" width="3" height="5"/>
    <rect x="43" y="128" width="3" height="5"/><rect x="47" y="135" width="3" height="5"/>
    <rect x="52" y="128" width="3" height="5"/><rect x="56" y="135" width="3" height="5"/>
    <rect x="61" y="128" width="3" height="5"/><rect x="65" y="135" width="3" height="5"/>
    <rect x="70" y="128" width="3" height="5"/><rect x="74" y="135" width="3" height="5"/>
    <rect x="79" y="128" width="3" height="5"/><rect x="83" y="135" width="3" height="5"/>
    <rect x="88" y="128" width="3" height="5"/><rect x="92" y="135" width="3" height="5"/>
    <rect x="97" y="128" width="3" height="5"/><rect x="101" y="135" width="3" height="5"/>
    <rect x="106" y="128" width="3" height="5"/><rect x="110" y="135" width="3" height="5"/>
    <rect x="115" y="128" width="3" height="5"/><rect x="119" y="135" width="3" height="5"/>
    <rect x="124" y="128" width="3" height="5"/><rect x="128" y="135" width="3" height="5"/>
    <rect x="133" y="128" width="3" height="5"/><rect x="137" y="135" width="3" height="5"/>
    <rect x="142" y="128" width="3" height="5"/><rect x="146" y="135" width="3" height="5"/>
    <rect x="151" y="128" width="3" height="5"/><rect x="155" y="135" width="3" height="5"/>
    <rect x="160" y="128" width="3" height="5"/><rect x="164" y="135" width="3" height="5"/>
    <rect x="169" y="128" width="3" height="5"/><rect x="173" y="135" width="3" height="5"/>
    <rect x="178" y="128" width="3" height="5"/><rect x="182" y="135" width="3" height="5"/>
    <rect x="187" y="128" width="3" height="5"/><rect x="191" y="135" width="3" height="5"/>
    <rect x="196" y="128" width="3" height="5"/><rect x="200" y="135" width="3" height="5"/>
    <rect x="205" y="128" width="3" height="5"/><rect x="209" y="135" width="3" height="5"/>
    <rect x="214" y="128" width="3" height="5"/><rect x="218" y="135" width="3" height="5"/>
    <rect x="223" y="128" width="3" height="5"/><rect x="227" y="135" width="3" height="5"/>
  </g>
</svg>
